PathFileType	4	(X/Y/Z)	D:\TRACE\spot_10-12-23\spot_body_motion_2_3-v60.trc
DataRate	CameraRate	NumFrames	NumMarkers	Units	OrigDataRate	OrigDataStartFrame	OrigNumFrames
100.00	100.00	      28	9	mm	100.00	876	      7000
Frame#	Time	front left toe			Front right toe			aft left toe			aft right toe			Arm			FL body			FR body			AL Body			AR Body			
		X1	Y1	Z1	X2	Y2	Z2	X3	Y3	Z3	X4	Y4	Z4	X5	Y5	Z5	X6	Y6	Z6	X7	Y7	Z7	X8	Y8	Z8	X9	Y9	Z9	

876	8.750	-108.64178	27.86105	-15.85855	467.99475	23.60605	99.48999	-240.64417	122.28581	482.37308	305.06345	-22.35024	627.48492	235.71803	790.97913	-163.02492	141.43735	530.82758	-159.73180	290.35266	532.65411	-127.47566	-49.20881	555.23273	704.43304	96.81279	550.96863	737.76227	
877	8.760	-108.37376	27.95100	-15.49311	468.15216	23.54849	99.76460	-242.35764	110.89056	482.42404	305.13876	-23.38032	627.57825	236.05249	791.26941	-162.24355	141.97861	530.96313	-159.01872	290.99127	533.20557	-126.89218	-48.59184	553.96942	704.79272	97.68209	550.15436	738.44489	
878	8.770	-108.20344	28.01959	-15.23688	468.19904	23.57463	99.98971	-243.54460	98.32439	483.07788	305.22842	-24.52345	627.97540	236.49287	791.50537	-160.68288	142.92911	531.28949	-158.05122	292.43915	532.89111	-124.72846	-48.00253	552.94904	705.22058	98.46426	549.05853	739.46973	
879	8.780	-108.05448	28.09038	-15.09984	468.16455	23.51787	100.32765	-245.09882	86.12204	483.75485	305.22623	-25.43073	627.99817	236.48335	791.93518	-159.56123	143.71780	531.40814	-157.21155	292.71948	534.16980	-125.18331	-47.46053	551.25665	706.06653	98.72471	547.70972	740.05695	
880	8.790	-107.89777	28.37638	-14.75358	468.21643	23.44787	100.61357	-245.63281	74.86711	484.78159	305.28757	-26.53063	628.29529	236.73238	792.45618	-158.20250	144.66003	531.33948	-155.90735	293.77924	534.36633	-124.01466	-46.82734	549.76880	706.88611	99.70373	546.27783	741.51691	
881	8.800	-107.92432	28.56242	-14.64022	468.38745	23.25673	100.96304	-246.53355	63.63041	486.05997	304.83939	-27.05980	628.31635	237.10185	793.06891	-156.71010	145.05675	531.67804	-155.49190	294.18118	534.69220	-122.91050	-46.38065	548.75592	708.39099	99.50652	545.72046	741.97119	
882	8.810	-107.77176	28.63805	-14.49876	468.41623	23.41998	101.32065	-247.49374	52.82910	486.86020	304.94058	-27.71186	628.51465	237.37953	793.25659	-155.44440	145.72813	531.83246	-154.38324	294.89478	534.44379	-121.28602	-45.90493	547.51672	708.77240	100.48125	544.76337	743.04675	
883	8.820	-107.71256	28.69408	-14.32475	468.89511	23.03334	101.46487	-248.28329	41.83813	486.96906	305.08646	-28.69545	628.79486	237.47543	793.35779	-154.35248	146.13388	531.82867	-153.53615	295.48962	535.14325	-120.80606	-45.41246	546.14575	709.92084	100.82768	543.91821	743.87610	
884	8.830	-107.65321	28.65976	-13.87858	468.60843	22.78248	101.89645	-248.64078	30.82739	486.87613	304.91656	-29.40895	628.91803	237.76808	793.36121	-152.98578	146.77585	531.86169	-152.30450	296.03271	535.28174	-119.61524	-45.46955	545.70551	711.56323	101.23701	543.20306	745.28192	
885	8.840	-107.80858	28.91525	-13.53939	468.35999	22.73355	102.00314	-248.85172	19.37475	486.76254	304.79086	-30.31433	628.93445	237.81927	793.37646	-151.85934	147.14236	531.90863	-151.24268	296.28671	535.66388	-119.02604	-44.77024	544.46759	712.07166	101.41566	542.38135	746.09723	
886	8.850	-109.01306	29.46269	-13.39390	467.99124	22.54979	102.22645	-248.51671	7.08059	486.62933	304.55200	-31.12535	629.19354	237.73692	793.54456	-150.44246	147.74500	531.73407	-149.82182	295.97803	536.51917	-118.46995	-44.48782	544.04175	714.12122	101.85818	541.57306	747.44128	
887	8.860	-108.98651	29.42536	-13.21599	467.73019	22.27660	102.49422	-248.07535	-6.13715	486.85370	304.54880	-31.66710	629.41278	238.05551	793.71564	-148.97610	147.81892	532.07227	-148.99548	296.31290	536.60046	-117.19424	-44.06404	542.87952	714.40918	102.64590	540.44080	749.00159	
888	8.870	-109.03121	29.28843	-12.95417	467.43640	22.12449	102.75475	-248.61597	-13.82195	482.59183	304.23288	-32.24836	629.45166	238.00720	793.88007	-147.63846	148.22072	532.19812	-147.78726	296.98862	536.16833	-115.65083	-43.81865	542.43848	716.29126	103.19850	540.37231	749.82800	
889	8.880	-109.53808	29.51759	-12.67783	467.03705	21.77939	102.85621	-251.19131	-13.60157	487.65897	303.07376	-32.69648	629.26141	238.35060	793.93756	-146.23515	147.90186	531.85144	-146.41669	296.62631	535.39270	-114.59483	-41.88599	543.92560	717.45343	104.77859	540.91089	751.09900	
890	8.890	-110.77088	29.67490	-11.74581	466.73193	21.78308	102.65984	-257.48932	-9.35893	487.29993	302.89975	-32.79818	629.40637	239.16037	793.80261	-145.39766	147.38434	531.38971	-145.12013	297.25989	533.95587	-111.94778	-40.91030	545.32397	718.93304	106.44898	542.17743	752.51666	
891	8.900	-111.00457	29.96943	-11.47272	466.32568	21.61873	102.91715	-254.60561	-11.50248	493.30530	303.68329	-33.58181	629.74884	239.98773	792.82330	-144.38246	147.29701	531.93195	-143.72881	296.28354	535.04163	-112.41303	-40.00763	545.46490	721.37158	107.61979	541.96484	753.94135	
892	8.910	-110.62242	29.98944	-11.51329	466.11194	21.62303	103.08888	-255.59001	-13.12454	492.26990	303.25861	-34.86509	629.65405	239.43001	792.71857	-143.78903	147.30878	532.30054	-142.45291	296.37390	535.57831	-111.01908	-39.22295	544.83716	722.18365	108.67232	541.54608	755.32123	
893	8.920	-110.86434	30.17168	-11.28135	465.81335	21.53173	103.26013	-256.53403	-11.88297	493.21677	302.62314	-35.06462	629.84406	238.70000	793.32666	-142.16394	147.56273	532.78333	-141.29062	296.95343	535.86566	-109.59686	-39.14778	543.99994	723.81952	107.37047	541.10120	756.50806	
894	8.930	-111.04713	30.28326	-11.22415	465.39551	21.32034	103.67982	-257.07642	-12.21015	492.86142	302.46252	-35.48181	630.17523	238.35843	794.41241	-140.49606	148.08028	533.35944	-139.94785	297.78958	536.49261	-108.36446	-38.69153	542.97900	724.46655	107.96617	539.46344	757.97235	
895	8.940	-111.37962	30.41703	-11.11885	464.94281	21.18758	103.89114	-257.64111	-12.65516	492.99957	301.53342	-36.20888	630.33557	238.32994	795.47876	-138.41454	148.65338	533.94659	-138.81885	296.91089	538.53870	-108.12289	-38.85945	541.62476	725.36938	107.71220	538.94965	758.92383	
896	8.950	-111.89220	30.56710	-10.99864	464.82504	21.31248	103.85107	-257.60968	-13.60328	493.13037	301.51505	-36.58337	630.30756	238.66151	796.45209	-136.62361	148.75772	534.59088	-137.79639	298.33902	538.07947	-105.92009	-38.80800	540.24561	726.50836	106.68024	537.79749	759.71283	
897	8.960	-112.26756	30.64865	-10.92054	464.95474	21.31646	104.11346	-258.09171	-14.05813	493.16290	300.75891	-36.97136	630.45966	239.22330	797.08636	-134.91531	148.89720	535.42413	-137.02876	298.14713	539.19592	-104.98420	-39.42925	538.95563	727.37177	106.71007	536.37543	760.87830	
898	8.970	-112.67952	30.63567	-10.77004	464.30551	21.15053	104.79173	-258.63712	-14.58179	493.17249	300.15594	-37.41148	630.55255	239.11966	797.63068	-133.53244	149.60638	535.89563	-135.69641	298.45081	539.79651	-103.93571	-39.96108	537.36682	728.43658	106.29885	534.96692	761.78876	
899	8.980	-113.09081	30.87597	-10.62819	463.82700	21.12178	105.22679	-259.11737	-14.92924	493.27365	300.05228	-38.11885	631.12628	239.61986	798.02246	-131.64941	149.71986	536.44244	-134.93727	298.28815	540.52905	-102.81702	-40.39627	536.09015	729.12811	105.77716	533.56793	762.88708	
900	8.990	-113.38605	30.92806	-10.58611	462.85358	20.77366	105.04525	-260.09833	-14.59539	493.49783	299.82510	-38.23611	631.39386	239.58286	798.69092	-130.20445	150.04753	536.77704	-133.68979	299.12518	540.47723	-101.35345	-40.89872	534.73334	729.84454	105.94667	532.13538	764.09930	
901	9.000	-113.77776	31.12715	-10.53564	462.74335	20.87194	105.09360	-260.53757	-14.60736	493.56427	298.97723	-38.60602	631.73639	239.20853	799.31000	-128.60059	150.12119	537.25073	-132.89844	299.03619	541.24847	-100.56746	-41.52471	533.56348	730.39948	104.86092	531.19373	764.49371	
902	9.010	-114.40667	31.22686	-10.41802	461.90958	20.58173	105.35643	-261.09283	-14.58870	493.69336	298.07895	-38.27208	631.53876	239.12033	799.66516	-127.30112	150.12369	537.55713	-132.02725	298.95755	541.80475	-99.56977	-42.47686	532.58160	731.09845	104.04282	529.97437	765.51550	
903	9.020	-114.95984	31.12683	-10.38884	459.98480	19.28869	104.91429	-261.76904	-14.92544	493.81268	297.68585	-38.35980	631.65356	238.99525	799.97028	-125.92966	150.14174	537.88623	-131.16304	299.22406	541.81464	-98.21533	-42.72218	531.09131	731.97894	103.63194	528.71344	766.27332	
